<mxfile host="app.diagrams.net" agent="Mozilla/5.0 (Macintosh; Intel Mac OS X 10_15_7) AppleWebKit/537.36 (KHTML, like Gecko) Chrome/129.0.0.0 Safari/537.36" version="24.7.17">
  <diagram name="Page-1" id="9fh4_2eHcwUfZ5hvUKyt">
    <mxGraphModel dx="1026" dy="626" grid="1" gridSize="10" guides="1" tooltips="1" connect="1" arrows="1" fold="1" page="1" pageScale="1" pageWidth="827" pageHeight="1169" math="0" shadow="0">
      <root>
        <mxCell id="0" />
        <mxCell id="1" parent="0" />
        <mxCell id="UvkbkxWskNrvvJ2NhAQK-4" style="edgeStyle=orthogonalEdgeStyle;rounded=0;orthogonalLoop=1;jettySize=auto;html=1;entryX=0.5;entryY=0;entryDx=0;entryDy=0;" edge="1" parent="1" source="UvkbkxWskNrvvJ2NhAQK-1" target="UvkbkxWskNrvvJ2NhAQK-2">
          <mxGeometry relative="1" as="geometry" />
        </mxCell>
        <mxCell id="UvkbkxWskNrvvJ2NhAQK-5" value="User clicks manage accounts" style="edgeLabel;html=1;align=center;verticalAlign=middle;resizable=0;points=[];" vertex="1" connectable="0" parent="UvkbkxWskNrvvJ2NhAQK-4">
          <mxGeometry x="-0.3" y="1" relative="1" as="geometry">
            <mxPoint as="offset" />
          </mxGeometry>
        </mxCell>
        <mxCell id="UvkbkxWskNrvvJ2NhAQK-1" value="User in home page" style="rounded=1;whiteSpace=wrap;html=1;" vertex="1" parent="1">
          <mxGeometry x="354" y="70" width="120" height="60" as="geometry" />
        </mxCell>
        <mxCell id="UvkbkxWskNrvvJ2NhAQK-6" style="edgeStyle=orthogonalEdgeStyle;rounded=0;orthogonalLoop=1;jettySize=auto;html=1;entryX=0.5;entryY=0;entryDx=0;entryDy=0;" edge="1" parent="1" source="UvkbkxWskNrvvJ2NhAQK-2" target="UvkbkxWskNrvvJ2NhAQK-3">
          <mxGeometry relative="1" as="geometry" />
        </mxCell>
        <mxCell id="UvkbkxWskNrvvJ2NhAQK-7" value="User clicks create account" style="edgeLabel;html=1;align=center;verticalAlign=middle;resizable=0;points=[];" vertex="1" connectable="0" parent="UvkbkxWskNrvvJ2NhAQK-6">
          <mxGeometry x="-0.15" y="1" relative="1" as="geometry">
            <mxPoint as="offset" />
          </mxGeometry>
        </mxCell>
        <mxCell id="UvkbkxWskNrvvJ2NhAQK-2" value="User views account list" style="rounded=1;whiteSpace=wrap;html=1;" vertex="1" parent="1">
          <mxGeometry x="354" y="190" width="120" height="60" as="geometry" />
        </mxCell>
        <mxCell id="UvkbkxWskNrvvJ2NhAQK-9" value="User clicks create account" style="edgeStyle=orthogonalEdgeStyle;rounded=0;orthogonalLoop=1;jettySize=auto;html=1;" edge="1" parent="1" source="UvkbkxWskNrvvJ2NhAQK-3" target="UvkbkxWskNrvvJ2NhAQK-8">
          <mxGeometry relative="1" as="geometry" />
        </mxCell>
        <mxCell id="UvkbkxWskNrvvJ2NhAQK-11" value="User inputs&lt;div&gt;wrong data&lt;/div&gt;" style="edgeStyle=orthogonalEdgeStyle;rounded=0;orthogonalLoop=1;jettySize=auto;html=1;" edge="1" parent="1" source="UvkbkxWskNrvvJ2NhAQK-3" target="UvkbkxWskNrvvJ2NhAQK-10">
          <mxGeometry relative="1" as="geometry">
            <mxPoint x="520" y="320" as="targetPoint" />
          </mxGeometry>
        </mxCell>
        <mxCell id="UvkbkxWskNrvvJ2NhAQK-3" value="User inputs information" style="rounded=1;whiteSpace=wrap;html=1;" vertex="1" parent="1">
          <mxGeometry x="354" y="290" width="120" height="60" as="geometry" />
        </mxCell>
        <mxCell id="UvkbkxWskNrvvJ2NhAQK-8" value="Account is successfully created" style="rounded=1;whiteSpace=wrap;html=1;" vertex="1" parent="1">
          <mxGeometry x="354" y="410" width="120" height="60" as="geometry" />
        </mxCell>
        <mxCell id="UvkbkxWskNrvvJ2NhAQK-10" value="ERROR" style="rounded=1;whiteSpace=wrap;html=1;" vertex="1" parent="1">
          <mxGeometry x="580" y="290" width="120" height="60" as="geometry" />
        </mxCell>
      </root>
    </mxGraphModel>
  </diagram>
</mxfile>
